<svg id="Capa_1" enable-background="new 0 0 512.002 512.002" height="512" viewBox="0 0 512.002 512.002" width="512" xmlns="http://www.w3.org/2000/svg"><g><g><g><path d="m215.468 65.969c-3.049 0-5.842-1.833-7.03-4.702l-20.995-50.743c-1.607-3.884.239-8.336 4.124-9.944 3.883-1.608 8.335.24 9.944 4.124l10.794 26.089 2.354-14.27c.685-4.147 4.6-6.947 8.749-6.272 4.148.685 6.955 4.602 6.272 8.749l-6.697 40.595c-.554 3.354-3.265 5.935-6.641 6.323-.293.035-.585.051-.874.051z" fill="#e27d47"/></g><g><path d="m387.571 110.336c-.614 0-1.238-.075-1.861-.232-4.076-1.024-6.551-5.16-5.526-9.237l12.531-49.872c1.024-4.076 5.159-6.549 9.237-5.526 4.076 1.024 6.551 5.16 5.526 9.237l-12.531 49.872c-.868 3.454-3.97 5.758-7.376 5.758z" fill="#e27d47"/></g><g><path d="m103.755 204.155h-26.345c-4.204 0-7.611-3.407-7.611-7.611s3.407-7.611 7.611-7.611h26.345c4.204 0 7.611 3.407 7.611 7.611s-3.407 7.611-7.611 7.611z" fill="#e27d47"/></g><g><path d="m434.588 204.003c-.93 0-1.874-.171-2.791-.533l-29.57-11.664c-3.911-1.542-5.831-5.962-4.287-9.873 1.542-3.912 5.966-5.829 9.873-4.287l29.57 11.664c3.911 1.542 5.831 5.962 4.287 9.873-1.18 2.994-4.049 4.82-7.082 4.82z" fill="#e27d47"/></g><g><path d="m170.037 59.442c-1.617 0-3.249-.513-4.631-1.576l-20.891-16.049c-3.333-2.561-3.959-7.339-1.398-10.673 2.559-3.331 7.338-3.961 10.673-1.398l20.891 16.049c3.333 2.561 3.959 7.339 1.398 10.673-1.499 1.951-3.758 2.974-6.042 2.974z" fill="#e27d47"/></g><g><path d="m279.625 51.42c-.977 0-1.969-.189-2.928-.589-3.879-1.618-5.713-6.075-4.094-9.955l10.864-26.044c1.619-3.88 6.075-5.712 9.955-4.094 3.879 1.618 5.713 6.075 4.094 9.955l-10.864 26.044c-1.218 2.922-4.047 4.683-7.027 4.683z" fill="#e27d47"/></g></g><path d="m399.152 283.651h-285.63c-11.047 0-20.002-8.955-20.002-20.002v-113.787c0-67.352 54.599-121.951 121.951-121.951h81.731c67.352 0 121.951 54.599 121.951 121.951v113.787c.001 11.047-8.954 20.002-20.001 20.002z" fill="#e49542"/><path d="m297.203 27.911h-35.18c67.352 0 121.951 54.599 121.951 121.951v113.787c0 11.047-8.955 20.002-20.002 20.002h35.18c11.047 0 20.002-8.955 20.002-20.002v-113.787c0-67.352-54.6-121.951-121.951-121.951z" fill="#e27d47"/><path d="m302.788 370.459h-19.08-54.741-19.08c-37.969 0-68.749 30.78-68.749 68.749v64.038c0 4.836 3.92 8.756 8.756 8.756h212.888c4.836 0 8.756-3.92 8.756-8.756v-64.038c-.001-37.969-30.781-68.749-68.75-68.749z" fill="#dd636e"/><path d="m302.788 370.459h-33.498c37.969 0 68.749 30.78 68.749 68.749v64.038c0 4.836-3.92 8.756-8.756 8.756h33.499c4.836 0 8.756-3.92 8.756-8.756v-64.038c-.001-37.969-30.781-68.749-68.75-68.749z" fill="#da4a54"/><path d="m275.498 319.766-36.759-2.162c-9.385 0-9.797 43.972-9.797 43.972v26.918c0 15.116 12.254 27.371 27.371 27.371 15.116 0 27.371-12.254 27.371-27.371v-26.918c-.001 0 1.199-41.81-8.186-41.81z" fill="#eaac9d"/><path d="m256.337 370.459c-72.946 0-132.079-59.134-132.079-132.079v-69.737c0-1.918 1.559-3.466 3.478-3.47 61.129-.112 115.156-8.868 163.348-40.009 1.44-.93 3.364-.633 4.396.736 21.762 28.891 51.444 36.886 89.476 39.087 1.939.112 3.462 1.705 3.462 3.648v69.745c-.002 72.946-59.136 132.079-132.081 132.079z" fill="#ffcbbe"/><path d="m384.955 164.987c-11.191-.648-21.653-1.804-31.409-3.84v77.233c0 67.034-49.94 122.399-114.644 130.932 5.706.753 11.524 1.147 17.435 1.147 72.945 0 132.079-59.134 132.079-132.079v-69.745c0-1.942-1.522-3.536-3.461-3.648z" fill="#eaac9d"/><g><g><g><path d="m301.811 200.551c-2.421 0-4.801-1.153-6.278-3.297-2.383-3.463-1.507-8.202 1.955-10.586 17.987-12.378 34.925-3.651 35.636-3.276 3.715 1.968 5.13 6.575 3.162 10.289-1.955 3.691-6.515 5.113-10.219 3.198-.526-.259-9.806-4.651-19.948 2.329-1.318.907-2.821 1.343-4.308 1.343z" fill="#2b4d66"/></g></g><g><g><path d="m210.863 200.551c-1.488 0-2.99-.435-4.308-1.342-10.22-7.035-19.565-2.519-19.959-2.323-3.716 1.965-8.28.531-10.249-3.182-1.968-3.715-.512-8.343 3.202-10.311.713-.378 17.649-9.1 35.636 3.276 3.463 2.384 4.338 7.123 1.955 10.586-1.476 2.143-3.855 3.296-6.277 3.296z" fill="#2b4d66"/></g></g></g><ellipse cx="200.256" cy="235.766" fill="#f6f9f9" rx="21.925" ry="23.955"/><g><path d="m195.181 243.016c-4.204 0-7.611-3.407-7.611-7.611v-5.368c0-4.204 3.407-7.611 7.611-7.611s7.611 3.407 7.611 7.611v5.368c.001 4.204-3.406 7.611-7.611 7.611z" fill="#365e7d"/></g><ellipse cx="312.418" cy="235.766" fill="#f6f9f9" rx="21.925" ry="23.955"/><g><path d="m315.463 247.076c-4.204 0-7.612-3.407-7.612-7.611v-5.368c0-4.204 3.407-7.611 7.612-7.611s7.611 3.407 7.611 7.611v5.368c0 4.203-3.407 7.611-7.611 7.611z" fill="#365e7d"/></g><path d="m275.648 332.946h-38.622c-16.611 0-30.076-13.466-30.076-30.076 0-16.611 13.466-30.076 30.076-30.076h38.622c16.611 0 30.076 13.466 30.076 30.076 0 16.61-13.466 30.076-30.076 30.076z" fill="#dd636e"/><g fill="#f6f9f9"><path d="m237.026 272.793c-3.736 0-7.311.687-10.611 1.932v13.184c0 8.263 6.698 14.961 14.961 14.961 8.263 0 14.961-6.698 14.961-14.961v-15.115h-19.311z"/><path d="m275.648 272.793h-19.311v15.115c0 8.263 6.698 14.961 14.961 14.961s14.961-6.698 14.961-14.961v-13.184c-3.3-1.244-6.875-1.931-10.611-1.931z"/></g></g></svg>