<svg id="Capa_1" enable-background="new 0 0 497 497" height="512" viewBox="0 0 497 497" width="512" xmlns="http://www.w3.org/2000/svg"><g><path d="m90.972 362.752-11.746-11.746c-12.031-12.031-30.802-14.101-45.165-4.979-14.069 8.935-16.238 28.605-4.452 40.39l25.952 25.952c11.785 11.785 31.455 9.617 40.39-4.452 9.121-14.363 7.052-33.133-4.979-45.165z" fill="#ff748f"/><path d="m406.028 362.752 11.746-11.746c12.031-12.031 30.802-14.101 45.165-4.979 14.069 8.935 16.238 28.605 4.452 40.39l-25.952 25.952c-11.785 11.785-31.455 9.617-40.39-4.452-9.121-14.363-7.052-33.133 4.979-45.165z" fill="#ff748f"/><g fill="#ff889e"><ellipse cx="103.318" cy="338.66" rx="39.978" ry="34.093" transform="matrix(.707 -.707 .707 .707 -209.208 172.248)"/><ellipse cx="393.682" cy="338.66" rx="34.093" ry="39.978" transform="matrix(.707 -.707 .707 .707 -124.162 377.567)"/><path d="m37.972 209.013c0-115.25 93.763-209.013 209.013-209.013s209.013 93.763 209.013 209.013z"/></g><path d="m110.675 201.263c0-83.157 41.4-156.323 104.077-198.776-100 15.545-176.78 102.236-176.78 206.526h72.838c-.08-2.575-.135-5.156-.135-7.75z" fill="#ff748f"/><circle cx="420.207" cy="219.239" fill="#ffcabd" r="48.912"/><path d="m377.284 497h-260.598c0-13.734 1.38-26.311 3.722-37.765l126.577-19.619 126.577 19.619c2.342 11.454 3.722 24.031 3.722 37.765z" fill="#ff889e"/><path d="m360.411 419.998-113.426 19.618-113.427-19.618c17.445-36.231 42.151-53.063 42.151-53.063h142.55c.001.001 24.707 16.833 42.152 53.063z" fill="#ff889e"/><path d="m196.566 366.936h-20.856s-24.706 16.832-42.151 53.063l36.155 6.253c5.261-21.763 14.5-41.842 26.852-59.316z" fill="#ff748f"/><path d="m411.99 156.176c-3.234-10.101-12.546-17.012-23.152-17.012h-92.895c-7.681 0-14.908-3.638-19.482-9.809l-17.92-24.17c-5.751-7.757-17.361-7.757-23.112 0l-17.92 24.17c-4.575 6.17-11.801 9.808-19.482 9.808h-92.892c-10.545 0-19.88 6.814-23.105 16.854-5.365 16.702-8.267 34.507-8.267 52.992-.001 95.666 79.075 174.037 174.737 173.217 94.97-.814 171.707-78.053 171.707-173.215 0-18.426-2.884-36.178-8.217-52.835z" fill="#ffdcce"/><path d="m164.721 468.397c0-5.446.253-10.828.727-16.143l-45.041 6.981c-2.342 11.453-3.722 24.031-3.722 37.765h50.318c-1.493-9.299-2.282-18.853-2.282-28.603z" fill="#ff748f"/><path d="m373.562 459.235h-253.154c3.058-14.981 7.751-28.04 13.151-39.237h226.853c5.398 11.198 10.092 24.256 13.15 39.237z" fill="#fbe29f"/><path d="m175.644 366.675c-40.207-42.777-64.969-101.106-64.969-165.412 0-21.487 2.78-42.301 7.96-62.098h-13.501c-10.545 0-19.88 6.814-23.105 16.854-1.527 4.752-2.846 9.597-3.964 14.519-1.371-.133-2.797-.212-4.303-.212-27.014 0-48.912 21.899-48.912 48.913s21.899 48.912 48.912 48.912c3.776 0 7.105-.442 10.063-1.251 15.882 44.244 49.367 80.356 91.819 99.775z" fill="#ffcabd"/><g><g><g><ellipse cx="142.446" cy="243.258" fill="#ff9db0" rx="38.573" ry="30.717"/></g><g><ellipse cx="351.523" cy="243.258" fill="#ff9db0" rx="38.573" ry="30.717"/></g></g></g><g><g><path d="m164.926 221.189c-4.142 0-7.5-3.357-7.5-7.5v-15.769c0-4.143 3.358-7.5 7.5-7.5s7.5 3.357 7.5 7.5v15.769c0 4.142-3.358 7.5-7.5 7.5z" fill="#423e4f"/></g><g><path d="m329.043 221.189c-4.142 0-7.5-3.357-7.5-7.5v-15.769c0-4.143 3.358-7.5 7.5-7.5s7.5 3.357 7.5 7.5v15.769c0 4.142-3.358 7.5-7.5 7.5z" fill="#423e4f"/></g><g><path d="m246.985 230.575c-10.458 0-20.405-4.53-27.289-12.429-2.721-3.123-2.396-7.86.727-10.582 3.122-2.721 7.86-2.396 10.582.727 4.034 4.629 9.858 7.284 15.98 7.284 6.121 0 11.946-2.655 15.98-7.284 2.721-3.123 7.458-3.447 10.582-.727 3.123 2.722 3.448 7.459.726 10.582-6.884 7.899-16.83 12.429-27.288 12.429z" fill="#423e4f"/></g></g><path d="m171.358 419.998h-37.799c-5.399 11.197-10.093 24.256-13.151 39.237h44.548c.683-13.564 2.879-26.702 6.402-39.237z" fill="#fccb88"/></g></svg>