<svg id="Capa_1" enable-background="new 0 0 512 512" height="512" viewBox="0 0 512 512" width="512" xmlns="http://www.w3.org/2000/svg"><g><g><path clip-rule="evenodd" d="m401.701 151.033-85.191-38.372v-52.446l-60.963-18.748-60.057 18.748v52.447l-85.22 38.372c-15.928 7.184-17.038 20.441-17.038 32.911v10.542l164.186 16.616 161.351-16.616v-10.542c0-12.47-1.111-25.728-17.068-32.912z" fill="#bcd0df" fill-rule="evenodd"/></g><g><path clip-rule="evenodd" d="m335.477 52.389v-44.563c0-4.322-3.507-7.826-7.832-7.826h-143.29c-4.325 0-7.832 3.504-7.832 7.826v44.562c0 4.322 3.507 7.826 7.832 7.826h11.135 121.02 11.135c4.325.001 7.832-3.504 7.832-7.825z" fill="#918291" fill-rule="evenodd"/></g><g><path clip-rule="evenodd" d="m418.769 294.97v-100.484h-325.538v100.484l162.316 34.751z" fill="#da4a54" fill-rule="evenodd"/></g><g><path clip-rule="evenodd" d="m418.769 463.846v-92.95l-158.049-30.137-167.489 30.137v92.95c0 26.486 21.685 48.154 48.163 48.154h114.591 114.591c26.508 0 48.193-21.668 48.193-48.154z" fill="#da4a54" fill-rule="evenodd"/></g><g><path clip-rule="evenodd" d="m418.769 370.896v-75.926h-82.444c5.114 11.593 7.978 24.442 7.978 37.963 0 13.491-2.864 26.34-7.978 37.963z" fill="#918291" fill-rule="evenodd"/></g><g><path clip-rule="evenodd" d="m177.166 332.933c0-13.521 2.835-26.369 7.978-37.963h-91.913v75.925h91.913c-5.144-11.622-7.978-24.471-7.978-37.962z" fill="#918291" fill-rule="evenodd"/></g><g><path clip-rule="evenodd" d="m354.856 332.934c0 13.495-2.864 26.342-7.984 37.962-4.79 10.807-11.538 20.562-19.841 28.763v27.65c0 8.448-6.871 15.309-15.308 15.309h-101.999c-8.417 0-15.319-6.861-15.319-15.309v-27.65c-8.272-8.2-15.02-17.956-19.81-28.763-5.141-11.62-7.984-24.467-7.984-37.962 0-13.526 2.843-26.373 7.984-37.962 14.577-33.028 47.666-56.104 86.123-56.104 38.488 0 71.546 23.076 86.154 56.104 5.12 11.589 7.984 24.436 7.984 37.962z" fill="#faf8f9" fill-rule="evenodd"/></g><g><path clip-rule="evenodd" d="m418.769 294.97v-100.484h-33.171v3.416 97.068z" fill="#c32430" fill-rule="evenodd"/></g><g><path clip-rule="evenodd" d="m418.769 370.896v-75.926h-33.171v7.067 62.522 6.337z" fill="#685d68" fill-rule="evenodd"/></g><g><path clip-rule="evenodd" d="m418.769 463.846v-92.95h-33.17v92.95c0 26.486-21.685 48.154-48.192 48.154h33.17c26.507 0 48.192-21.668 48.192-48.154z" fill="#c32430" fill-rule="evenodd"/></g><g><path clip-rule="evenodd" d="m335.477 52.389v-44.563c0-4.322-3.507-7.826-7.832-7.826h-33.17c4.296 0 7.832 3.504 7.832 7.826v44.562c0 1.168-.263 2.249-.701 3.241-1.257 2.716-3.975 4.585-7.131 4.585h22.036 11.135c4.324.001 7.831-3.504 7.831-7.825z" fill="#685d68" fill-rule="evenodd"/></g><g><path clip-rule="evenodd" d="m316.51 112.662v-52.447h-22.036-11.164v47.512c0 6.716-.621 16.879 5.838 19.624l79.141 33.933c16.074 6.892 17.308 18.894 17.308 31.363v1.84h33.17v-10.542c0-12.469-1.111-25.727-17.067-32.911z" fill="#81a7c6" fill-rule="evenodd"/></g><g><path clip-rule="evenodd" d="m351.463 358.047c2.192-8.001 3.39-16.412 3.39-25.114 0-8.206-1.052-16.149-3.01-23.712-1.286-4.906-2.952-9.666-4.968-14.251-14.612-33.028-47.666-56.097-86.155-56.097-6.313 0-12.479.613-18.441 1.811 30.365 6.045 55.469 26.691 67.656 54.287 10.638 24.063 10.638 51.863 0 75.925-4.179 9.461-9.878 18.076-16.775 25.61-4.121 4.468-3.039 9.374-3.039 15.682v15.127c0 5.315-2.747 10.016-6.897 12.761-2.426 1.606-5.319 2.541-8.417 2.541h36.911c8.446 0 15.314-6.862 15.314-15.302v-27.655c8.3-8.206 15.051-17.959 19.844-28.764 1.811-4.147 3.36-8.44 4.587-12.849z" fill="#e5e1e5" fill-rule="evenodd"/></g><g><path d="m290.954 401.678v40.939h-15.453v-40.939c0-4.275 3.451-7.726 7.726-7.726 4.266 0 7.727 3.451 7.727 7.726z" fill="#685d68"/></g><g><path d="m246.296 401.678v40.939h-15.453v-40.939c0-4.275 3.461-7.726 7.726-7.726s7.727 3.451 7.727 7.726z" fill="#685d68"/></g><g><path d="m240.27 343.464c-.545 0-1.098-.058-1.652-.179l-27.618-6.016c-4.17-.908-6.813-5.024-5.905-9.194.908-4.169 5.028-6.811 9.194-5.905l27.618 6.016c4.17.908 6.813 5.024 5.905 9.194-.787 3.616-3.988 6.084-7.542 6.084z" fill="#685d68"/></g><g><path d="m281.17 343.464c-3.555 0-6.755-2.468-7.542-6.083-.908-4.17 1.735-8.286 5.905-9.194l27.617-6.016c4.167-.909 8.286 1.735 9.194 5.905s-1.735 8.286-5.905 9.194l-27.617 6.016c-.554.12-1.107.178-1.652.178z" fill="#685d68"/></g></g></svg>