<svg height="503pt" viewBox="-17 0 503 503.45835" width="503pt" xmlns="http://www.w3.org/2000/svg"><path d="m338.738281 301.609375-26.070312-29.320313c-16.449219-18.507812-40.03125-29.097656-64.792969-29.097656h-24.542969c-24.761719 0-48.339843 10.589844-64.792969 29.097656l-26.070312 29.320313c-10.675781 12.019531-24.484375 20.828125-39.882812 25.449219-36.671876 11-61.785157 44.75-61.78125 83.035156v13.152344c0 41.941406 34 75.945312 75.945312 75.945312 11.789062 0 23.417969-2.746094 33.964844-8.019531l46.402344-23.195313c15.054687-7.53125 31.65625-11.453124 48.488281-11.453124s33.4375 3.921874 48.492187 11.453124l46.40625 23.195313c10.542969 5.269531 22.167969 8.015625 33.953125 8.019531 41.945313 0 75.945313-34.003906 75.945313-75.945312v-13.152344c.003906-38.285156-25.109375-72.035156-61.78125-83.035156-15.394532-4.621094-29.207032-13.429688-39.882813-25.449219zm0 0" fill="#af8066"/><path d="m302.050781 106.957031c-20.601562-3.503906-41.5 18.359375-46.679687 48.828125-5.179688 30.472656 7.324218 58.011719 27.925781 61.511719s41.5-18.359375 46.679687-48.832031c5.175782-30.46875-7.324218-58.007813-27.925781-61.507813zm0 0" fill="#7f5b53"/><path d="m440.039062 177.558594c-19.007812-9.046875-45.683593 7.292968-59.582031 36.492187-13.898437 29.203125-9.753906 60.207031 9.253907 69.253907 19.011718 9.046874 45.6875-7.289063 59.582031-36.492188 13.898437-29.199219 9.753906-60.207031-9.253907-69.253906zm0 0" fill="#7f5b53"/><path d="m90.863281 214.046875c-13.898437-29.203125-40.574219-45.539063-59.582031-36.492187-19.011719 9.046874-23.152344 40.050781-9.257812 69.253906 13.898437 29.199218 40.574218 45.539062 59.582031 36.492187 19.011719-9.046875 23.15625-40.054687 9.257812-69.253906zm0 0" fill="#7f5b53"/><path d="m215.867188 155.789062c-5.179688-30.46875-26.078126-52.332031-46.679688-48.832031-20.601562 3.503907-33.101562 31.042969-27.925781 61.511719 5.179687 30.46875 26.078125 52.332031 46.679687 48.832031 20.601563-3.503906 33.105469-31.042969 27.925782-61.511719zm0 0" fill="#7f5b53"/><path d="m297.675781 72.335938c3.382813 0 6.761719.285156 10.09375.855468 10.15625 1.765625 19.699219 6.070313 27.742188 12.519532-4.992188-28.613282-16.519531-63.667969-25.660157-77.65625-1.917968-2.90625-5.421874-4.339844-8.828124-3.617188-3.410157.722656-6.027344 3.460938-6.597657 6.894531-2.707031 15.90625-6.9375 46.082031-11.648437 62.898438 4.867187-1.242188 9.871094-1.878907 14.898437-1.894531zm0 0" fill="#af8066"/><path d="m428.722656 140.929688c8.988282-.039063 17.871094 1.945312 25.992188 5.800781 3.792968 1.835937 7.375 4.074219 10.691406 6.671875-2.253906-29.183594-9.386719-57.785156-21.101562-84.613282-1.617188-3.238281-5.117188-5.09375-8.703126-4.613281-3.589843.480469-6.476562 3.1875-7.1875 6.738281-4.816406 24.632813-11.070312 48.964844-18.722656 72.871094 6.175782-1.855468 12.582032-2.820312 19.03125-2.855468zm0 0" fill="#af8066"/><path d="m16.613281 146.765625c8.121094-3.859375 17.003907-5.847656 25.992188-5.8125 6.398437.035156 12.761719.984375 18.894531 2.816406-7.644531-23.894531-13.890625-48.21875-18.707031-72.839843-.710938-3.550782-3.597657-6.257813-7.183594-6.738282-3.589844-.476562-7.085937 1.375-8.703125 4.613282-11.734375 26.847656-18.867188 55.480468-21.105469 84.691406 3.351563-2.625 6.976563-4.882813 10.8125-6.730469zm0 0" fill="#af8066"/><path d="m163.480469 73.191406c3.328125-.570312 6.699219-.855468 10.078125-.855468 5.015625.023437 10.011718.660156 14.875 1.902343-4.710938-16.78125-8.945313-46.984375-11.648438-62.890625-.578125-3.429687-3.191406-6.160156-6.597656-6.882812-3.402344-.722656-6.902344.707031-8.824219 3.609375-9.148437 13.976562-20.675781 49.039062-25.660156 77.652343 8.054687-6.457031 17.609375-10.769531 27.777344-12.535156zm0 0" fill="#af8066"/><g fill="#7f6e5d"><path d="m363.867188 503.457031c-12.4375-.019531-24.703126-2.914062-35.839844-8.464843l-46.429688-23.199219c-29.390625-14.398438-63.785156-14.398438-93.175781 0l-46.402344 23.199219c-24.863281 12.425781-54.390625 11.09375-78.035156-3.519532-23.640625-14.617187-38.035156-40.429687-38.035156-68.226562v-13.152344c-.183594-40.238281 26.253906-75.753906 64.851562-87.125 14.640625-4.390625 27.769531-12.765625 37.921875-24.191406l26.0625-29.320313c17.261719-19.40625 41.988282-30.515625 67.960938-30.53125h24.53125c25.984375.011719 50.722656 11.121094 67.992187 30.53125l26.070313 29.328125c10.148437 11.425782 23.277344 19.800782 37.914062 24.183594 38.597656 11.371094 65.035156 46.886719 64.855469 87.125v13.152344c-.054687 44.289062-35.953125 80.175781-80.242187 80.210937zm-128.851563-51.199219c17.496094.035157 34.746094 4.125 50.398437 11.945313l46.402344 23.195313c22.226563 11.109374 48.621094 9.917968 69.753906-3.152344 21.136719-13.070313 33.992188-36.152344 33.976563-61v-13.152344c.167969-36.453125-23.773437-68.636719-58.742187-78.949219-16.144532-4.847656-30.621094-14.089843-41.8125-26.691406l-26.070313-29.328125c-15.648437-17.589844-38.066406-27.65625-61.609375-27.667969h-24.566406c-23.546875.007813-45.964844 10.074219-61.613282 27.667969l-26.058593 29.328125c-11.210938 12.601563-25.703125 21.84375-41.855469 26.691406-34.964844 10.316407-58.90625 42.496094-58.738281 78.949219v13.152344c.007812 24.835937 12.871093 47.898437 33.996093 60.957031 21.128907 13.058594 47.511719 14.246094 69.726563 3.144531l46.398437-23.144531c15.65625-7.820313 32.910157-11.910156 50.414063-11.945313zm0 0"/><path d="m287.128906 221.933594c-1.714844 0-3.429687-.144532-5.121094-.433594-12.261718-2.636719-22.355468-11.3125-26.800781-23.039062-5.773437-13.679688-7.382812-28.753907-4.625-43.339844 5.570313-32.746094 28.660157-56.246094 51.609375-52.328125 12.265625 2.65625 22.351563 11.34375 26.792969 23.082031 5.773437 13.679688 7.382813 28.761719 4.617187 43.351562-2.210937 14.679688-8.707031 28.382813-18.671874 39.386719-7.035157 8.082031-17.09375 12.902344-27.800782 13.320313zm9.914063-111.085938c-17.003907 0-33.585938 19.457032-38.050781 45.652344-2.472657 12.914062-1.089844 26.269531 3.976562 38.402344 3.328125 9.128906 11.027344 15.964844 20.480469 18.191406 9.65625 1.027344 19.179687-2.886719 25.320312-10.410156 8.792969-9.773438 14.507813-21.921875 16.433594-34.925782 2.480469-12.914062 1.097656-26.269531-3.96875-38.402343-3.324219-9.128907-11.023437-15.96875-20.476563-18.199219-1.226562-.207031-2.46875-.3125-3.714843-.308594zm0 0"/><path d="m400.246094 290.015625c-4.480469.027344-8.910156-.949219-12.960938-2.859375-11.25-6.085938-18.566406-17.542969-19.355468-30.3125-1.605469-15.328125 1.203124-30.796875 8.089843-44.585938 6.355469-14.039062 16.585938-25.972656 29.492188-34.398437 10.414062-7.460937 23.941406-9.019531 35.78125-4.121094 21.09375 10.054688 26.152343 43.675781 11.261719 74.949219-12.015626 25.222656-33.40625 41.328125-52.308594 41.328125zm27.851562-110.695313c-6.457031.222657-12.726562 2.222657-18.125 5.777344-11.5 7.554688-20.609375 18.238282-26.253906 30.789063-6.175781 12.292969-8.71875 26.09375-7.332031 39.78125.457031 9.898437 5.957031 18.875 14.566406 23.78125 16.886719 8.046875 41.039063-7.441407 53.898437-34.472657 12.867188-27.027343 9.617188-55.542968-7.230468-63.566406-2.976563-1.402344-6.230469-2.117187-9.523438-2.089844zm0 0"/><path d="m69.664062 290.125c-8.035156-.222656-15.851562-2.667969-22.585937-7.058594-12.90625-8.417968-23.136719-20.347656-29.492187-34.386718-14.890626-31.277344-9.832032-64.855469 11.265624-74.949219 11.835938-4.890625 25.359376-3.332031 35.777344 4.121093 12.902344 8.414063 23.132813 20.335938 29.492188 34.363282 6.890625 13.789062 9.695312 29.257812 8.089844 44.585937-.773438 12.785157-8.089844 24.261719-19.351563 30.355469-4.125 1.957031-8.628906 2.972656-13.195313 2.96875zm-27.621093-110.804688c-3.292969-.027343-6.550781.6875-9.53125 2.089844-16.847657 8.023438-20.097657 36.539063-7.230469 63.566406 5.644531 12.550782 14.753906 23.234376 26.257812 30.785157 7.976563 5.886719 18.410157 7.277343 27.648438 3.6875 8.613281-4.90625 14.109375-13.882813 14.566406-23.78125 1.386719-13.6875-1.15625-27.488281-7.328125-39.78125-5.648437-12.550781-14.757812-23.234375-26.257812-30.789063-5.398438-3.554687-11.667969-5.554687-18.125-5.777344zm0 0"/><path d="m183.074219 221.925781c-21.171875 0-41.449219-22.390625-46.609375-52.742187-2.753906-14.589844-1.148438-29.671875 4.625-43.351563 4.449218-11.722656 14.535156-20.394531 26.792968-23.039062 12.460938-1.546875 24.855469 3.320312 32.929688 12.9375 9.964844 11.003906 16.460938 24.707031 18.671875 39.390625 2.761719 14.585937 1.15625 29.660156-4.617187 43.339844-4.449219 11.722656-14.535157 20.394531-26.792969 23.039062-1.652344.285156-3.324219.429688-5 .425781zm-38.195313-54.175781c4.785156 28.097656 23.566406 48.5 41.761719 45.335938 9.457031-2.226563 17.15625-9.066407 20.480469-18.191407 5.0625-12.132812 6.441406-25.488281 3.964844-38.402343-1.925782-13-7.644532-25.144532-16.441407-34.910157-6.144531-7.523437-15.667969-11.441406-25.328125-10.417969-9.457031 2.226563-17.15625 9.070313-20.480468 18.203126-5.066407 12.128906-6.449219 25.484374-3.976563 38.398437zm0 0"/><path d="m341.035156 95.992188-8.773437-6.9375c-7.480469-6.015626-16.371094-10.027344-25.832031-11.65625-7.730469-1.320313-15.652344-.984376-23.242188.988281l-7.136719 1.792969 1.988281-7.082032c3.585938-12.800781 7.015626-34.261718 9.523438-49.9375.742188-4.675781 1.425781-8.960937 2.03125-12.527344.863281-5.164062 4.804688-9.273437 9.925781-10.355468 5.125-1.085938 10.390625 1.082031 13.269531 5.457031 9.386719 14.328125 21.179688 49.878906 26.289063 79.242187zm-43.949218-27.921876c3.625 0 7.242187.304688 10.8125.914063 7.332031 1.242187 14.390624 3.757813 20.855468 7.441406-4.449218-23.003906-12.210937-45.238281-23.039062-66.015625-.921875-1.453125-2.65625-2.171875-4.335938-1.792968-1.710937.328124-3.035156 1.695312-3.3125 3.414062-.605468 3.542969-1.277344 7.792969-2.019531 12.441406-2.269531 14.175782-5 31.277344-8.03125 44.246094 3.003906-.441406 6.035156-.65625 9.070313-.648438zm0 0"/><path d="m469.785156 162.613281-7.570312-5.820312c-3.082032-2.414063-6.40625-4.496094-9.921875-6.214844-13.160157-6.128906-28.140625-7.09375-41.976563-2.703125l-7.972656 2.347656 2.722656-7.835937c7.554688-23.738281 13.753906-47.886719 18.570313-72.328125 1.085937-5.328125 5.429687-9.378906 10.820312-10.09375 5.390625-.710938 10.640625 2.074218 13.074219 6.9375 11.933594 27.324218 19.210938 56.457031 21.527344 86.1875zm-41.652344-25.953125c9.621094-.039062 19.128907 2.085938 27.820313 6.222656 1.261719.597657 2.507813 1.253907 3.753906 1.960938-2.804687-25.582031-9.492187-50.589844-19.824219-74.160156-.75-1.628906-2.496093-2.558594-4.265624-2.273438-1.816407.191406-3.289063 1.558594-3.609376 3.355469-2.558593 12.664063-9.027343 42.582031-16.445312 66.082031 4.144531-.777344 8.351562-1.175781 12.570312-1.1875zm0 0"/><path d="m.230469 162.757812.707031-9.574218c2.304688-29.761719 9.589844-58.925782 21.546875-86.273438 2.355469-4.902344 7.617187-7.71875 13.003906-6.964844 5.441407.660157 9.839844 4.746094 10.898438 10.121094 4.800781 24.425782 10.996093 48.554688 18.550781 72.269532l2.714844 7.816406-7.9375-2.3125c-13.808594-4.351563-28.746094-3.371094-41.863282 2.75-3.558593 1.722656-6.921874 3.828125-10.027343 6.277344zm33.601562-94.378906c-1.582031-.039062-3.035156.871094-3.695312 2.3125-10.347657 23.589844-17.035157 48.625-19.820313 74.238282 1.277344-.734376 2.558594-1.40625 3.875-2.03125 12.535156-5.933594 26.640625-7.707032 40.257813-5.058594-7.433594-23.5-13.839844-53.417969-16.425781-66.058594-.332032-1.800781-1.804688-3.167969-3.625-3.371094-.1875-.019531-.375-.03125-.566407-.03125zm0 0"/><path d="m128.980469 96.035156 1.917969-11.035156c5.121093-29.371094 16.914062-64.929688 26.300781-79.265625 2.878906-4.375 8.144531-6.542969 13.265625-5.457031 5.125 1.082031 9.066406 5.191406 9.929687 10.355468.613281 3.582032 1.296875 7.882813 2.054688 12.59375 2.484375 15.652344 5.914062 37.078126 9.5 49.851563l1.976562 7.074219-7.125-1.773438c-7.578125-1.964844-15.484375-2.300781-23.199219-.988281-9.46875 1.632813-18.367187 5.652344-25.847656 11.679687zm38.792969-87.511718c-1.386719-.003907-2.679688.710937-3.414063 1.886718-10.828125 20.78125-18.585937 43.019532-23.039063 66.023438 6.480469-3.683594 13.554688-6.210938 20.90625-7.457032 6.566407-1.132812 13.273438-1.210937 19.863282-.230468-3.042969-12.945313-5.765625-30.023438-8.027344-44.167969-.742188-4.679687-1.425781-8.953125-2.03125-12.511719-.277344-1.722656-1.605469-3.085937-3.320312-3.414062-.304688-.078125-.621094-.121094-.9375-.128906zm0 0"/></g></svg>