<?xml version="1.0" encoding="iso-8859-1"?>
<!-- Generator: Adobe Illustrator 19.0.0, SVG Export Plug-In . SVG Version: 6.00 Build 0)  -->
<svg version="1.1" id="Layer_1" xmlns="http://www.w3.org/2000/svg" xmlns:xlink="http://www.w3.org/1999/xlink" x="0px" y="0px"
	 viewBox="0 0 512 512" style="enable-background:new 0 0 512 512;" xml:space="preserve">
<path style="fill:#A3683D;" d="M252.365,235.75l108.658-108.658c22.99-22.991,60.398-22.991,83.388,0
	c22.991,22.99,22.991,60.398,0,83.387c-9.834,9.837-9.834,25.782,0,35.617c9.835,9.835,25.782,9.835,35.617,0
	c42.629-42.629,42.629-111.993,0-154.622c-42.63-42.63-111.992-42.63-154.622,0L7.376,409.506c-9.834,9.834-9.834,25.78,0,35.616
	c9.837,9.835,25.781,9.835,35.618,0L233.37,254.745"/>
<path style="fill:#874E23;" d="M480.028,91.475c-42.63-42.63-111.992-42.63-154.622,0L7.376,409.506
	c-9.834,9.834-9.834,25.78,0,35.616c2.87,2.87,6.268,4.878,9.874,6.072c-2.583-6.881-1.125-14.931,4.411-20.466l78.763-78.762
	c0.001-0.002,0.002-0.004,0.004-0.006l244.069-244.07c32.715-32.716,85.946-32.716,118.663,0c32.715,32.716,32.715,85.947,0,118.663
	c-7.149,7.15-18.502,7.516-26.094,1.119c-0.163,6.65,2.273,13.35,7.346,18.422c9.835,9.835,25.782,9.835,35.617,0
	C522.657,203.467,522.657,134.104,480.028,91.475z"/>
<rect x="271.994" y="128.294" transform="matrix(0.7071 0.7071 -0.7071 0.7071 196.876 -164.6418)" style="fill:#F7941C;" width="50.369" height="54.07"/>
<rect x="261.201" y="133.826" transform="matrix(-0.7071 0.7071 -0.7071 -0.7071 595.5552 46.0707)" style="fill:#ED7626;" width="54.07" height="25.107"/>
<g>
</g>
<g>
</g>
<g>
</g>
<g>
</g>
<g>
</g>
<g>
</g>
<g>
</g>
<g>
</g>
<g>
</g>
<g>
</g>
<g>
</g>
<g>
</g>
<g>
</g>
<g>
</g>
<g>
</g>
</svg>
