<svg id="Capa_1" enable-background="new 0 0 497 497" height="512" viewBox="0 0 497 497" width="512" xmlns="http://www.w3.org/2000/svg"><g><path d="m190.167 73.164-53-31.752-1.436-4.601h228.669l-1.044 4.601-52.381 33.134h-120.808" fill="#aabfcf"/><path d="m137.167 41.412h226.189l9.395-41.412h-248.502z" fill="#1179f0"/><path d="m254.225 74.546-47.157-37.735h-71.337l1.436 4.601 53 31.752v1.382z" fill="#9bb1c2"/><path d="m161.065 0h-36.816l12.918 41.412h75.651z" fill="#116af0"/><path d="m312.961 147.29 95.468-76.057c3.905-3.068 12.501-2.681 8.989-6.193l-7.591-27.967-37.076-37.073-129.248 110.946v59.802h87.831z" fill="#118df0"/><path d="m440.7 67.944-31.135-31.132-119.648 95.718v38.218h41.417v-5.084l108.626-85.35c3.905-3.068 4.251-8.859.74-12.37z" fill="#d0e2ed"/><path d="m270.648 87.645-27.145 23.301v59.802h87.831v-5.085l18.829-14.794z" fill="#1179f0"/><path d="m308.451 117.703-18.534 14.827v38.218h41.417v-5.085l18.829-14.794z" fill="#aabfcf"/><path d="m331.334 165.663-207.085-165.663-36.924 36.922-16.296 31.089c-3.512 3.512 2.527 3.878 6.432 6.947l104.712 85.674-16.508 10.117h165.668v-5.086z" fill="#118df0"/><path d="m87.435 36.812-31.134 31.132c-3.512 3.511-3.166 9.303.739 12.371l108.626 85.349v5.084h82.835v-5.083z" fill="#d0e2ed"/><path d="m231.933 246.164v-30.801c0-9.15 7.417-16.567 16.567-16.567s16.567 7.417 16.567 16.567v30.801z" fill="#f58c31"/><ellipse cx="248.5" cy="364.465" fill="#fdbe40" rx="132.535" ry="132.535" transform="matrix(.707 -.707 .707 .707 -184.932 282.466)"/><path d="m315.334 198.797h-133.668c-8.837 0-16-7.163-16-16v-17.134h165.668v17.134c0 8.837-7.163 16-16 16z" fill="#fdbe40"/><circle cx="248.5" cy="364.465" fill="#f58c31" r="99.401"/><path d="m253.88 306.268 13.701 27.762c.874 1.771 2.563 2.998 4.518 3.282l30.637 4.452c4.921.715 6.886 6.763 3.325 10.234l-22.169 21.61c-1.414 1.378-2.059 3.364-1.726 5.311l5.233 30.513c.841 4.901-4.304 8.639-8.706 6.325l-27.403-14.406c-1.748-.919-3.836-.919-5.584 0l-27.403 14.406c-4.402 2.314-9.546-1.424-8.706-6.325l5.233-30.513c.334-1.946-.312-3.932-1.726-5.311l-22.169-21.61c-3.561-3.471-1.596-9.519 3.325-10.234l30.637-4.452c1.954-.284 3.644-1.511 4.518-3.282l13.701-27.762c2.204-4.46 8.563-4.46 10.764 0z" fill="#fdbe40"/><g fill="#faa83c"><path d="m248.5 231.931c-3.875 0-7.709.176-11.5.502 67.811 5.83 121.035 62.711 121.035 132.032 0 69.322-53.224 126.203-121.035 132.032 3.791.326 7.625.502 11.5.502 73.197 0 132.535-59.338 132.535-132.535 0-73.196-59.338-132.533-132.535-132.533z"/><path d="m308.334 165.663v17.134c0 8.837-7.164 16-16 16h23c8.836 0 16-7.163 16-16v-17.134z"/></g></g></svg>