<?xml version="1.0" encoding="iso-8859-1"?>
<!-- Generator: Adobe Illustrator 21.0.0, SVG Export Plug-In . SVG Version: 6.00 Build 0)  -->
<svg version="1.1" id="Capa_1" xmlns="http://www.w3.org/2000/svg" xmlns:xlink="http://www.w3.org/1999/xlink" x="0px" y="0px"
	 viewBox="0 0 512 512" style="enable-background:new 0 0 512 512;" xml:space="preserve">
<path style="fill:#FEDB3F;" d="M478.735,364.291c-3.491-4.664-9.397-6.842-15.078-5.556c-16.371,3.698-33.234,5.573-50.118,5.573
	c-124.871,0-226.462-101.591-226.462-226.462c0-38.489,9.84-76.512,28.455-109.958c2.833-5.089,2.409-11.369-1.081-16.032
	c-3.49-4.663-9.396-6.838-15.077-5.557C143.635,18.89,93.032,50.422,56.888,95.088C20.203,140.425,0,197.571,0,256
	c0,68.38,26.629,132.667,74.98,181.02S187.62,512,256,512c92.846,0,178.607-50.456,223.816-131.677
	C482.649,375.234,482.225,368.954,478.735,364.291z"/>
<path style="fill:#E2BF29;" d="M463.656,358.735c-16.371,3.698-33.234,5.573-50.118,5.573c-61.172,0-116.747-24.391-157.538-63.944
	V512c92.846,0,178.607-50.456,223.816-131.677c2.833-5.089,2.409-11.369-1.081-16.032
	C475.243,359.626,469.337,357.448,463.656,358.735z"/>
<g>
	<path style="fill:#00429D;" d="M374.154,251.077h-98.462c-5.974,0-11.359-3.598-13.645-9.118
		c-2.285-5.519-1.022-11.872,3.202-16.096l73.248-73.248h-62.806c-8.157,0-14.769-6.613-14.769-14.769
		c0-8.157,6.613-14.769,14.769-14.769h98.462c5.974,0,11.359,3.598,13.645,9.118c2.285,5.519,1.022,11.872-3.202,16.096
		l-73.248,73.249h62.806c8.157,0,14.769,6.613,14.769,14.769S382.31,251.077,374.154,251.077z"/>
	<path style="fill:#00429D;" d="M497.231,113.231h-83.692c-5.974,0-11.359-3.598-13.645-9.118
		c-2.285-5.519-1.022-11.872,3.202-16.096l58.479-58.479h-48.036c-8.157,0-14.769-6.613-14.769-14.769S405.382,0,413.538,0h83.692
		c5.974,0,11.359,3.598,13.645,9.118c2.285,5.519,1.022,11.872-3.202,16.096l-58.479,58.479h48.036
		c8.157,0,14.769,6.613,14.769,14.769S505.387,113.231,497.231,113.231z"/>
	<path style="fill:#00429D;" d="M495.921,251.093h-52.852c-5.857,0-11.161-3.462-13.519-8.823
		c-2.358-5.361-1.325-11.61,2.633-15.927l31.471-34.327H443.07c-8.157,0-14.769-6.613-14.769-14.769
		c0-8.157,6.613-14.769,14.769-14.769h54.161c5.857,0,11.161,3.462,13.519,8.823s1.325,11.61-2.633,15.927l-31.471,34.327h19.276
		c8.157,0,14.769,6.613,14.769,14.769C510.69,244.48,504.079,251.093,495.921,251.093z"/>
</g>
<path style="fill:#FEB03B;" d="M256,448c-29.86,0-54.154-24.293-54.154-54.154c0-8.157,6.613-14.769,14.769-14.769
	s14.769,6.613,14.769,14.769c0,13.573,11.042,24.615,24.615,24.615c8.157,0,14.769,6.613,14.769,14.769S264.157,448,256,448z"/>
<path style="fill:#DB891D;" d="M270.769,433.231c0-8.157-6.613-14.769-14.769-14.769V448
	C264.157,448,270.769,441.387,270.769,433.231z"/>
<path style="fill:#FEB03B;" d="M118.154,349.538c-29.86,0-54.154-24.293-54.154-54.154c0-8.157,6.613-14.769,14.769-14.769
	s14.769,6.613,14.769,14.769c0,13.573,11.042,24.615,24.615,24.615c8.157,0,14.769,6.613,14.769,14.769
	S126.31,349.538,118.154,349.538z"/>
<g>
</g>
<g>
</g>
<g>
</g>
<g>
</g>
<g>
</g>
<g>
</g>
<g>
</g>
<g>
</g>
<g>
</g>
<g>
</g>
<g>
</g>
<g>
</g>
<g>
</g>
<g>
</g>
<g>
</g>
</svg>
