<?xml version="1.0" encoding="iso-8859-1"?>
<!-- Generator: Adobe Illustrator 19.0.0, SVG Export Plug-In . SVG Version: 6.00 Build 0)  -->
<svg version="1.1" id="Capa_1" xmlns="http://www.w3.org/2000/svg" xmlns:xlink="http://www.w3.org/1999/xlink" x="0px" y="0px"
	 viewBox="0 0 512 512" style="enable-background:new 0 0 512 512;" xml:space="preserve">
<g>
	<g>
		<path style="fill:#CC4B4C;" d="M485.517,247.172h-61.793v-52.966c0-4.875-3.952-8.828-8.828-8.828s-8.828,3.952-8.828,8.828
			v52.966h-52.966v-26.483c0-4.875-3.952-8.828-8.828-8.828s-8.828,3.952-8.828,8.828v26.483h-52.966
			c-4.875,0-8.828,3.952-8.828,8.828s3.952,8.828,8.828,8.828h52.966v26.483c0,4.875,3.952,8.828,8.828,8.828
			s8.828-3.952,8.828-8.828v-26.483h52.966v52.966c0,4.875,3.952,8.828,8.828,8.828s8.828-3.952,8.828-8.828v-52.966h61.793
			c4.875,0,8.828-3.952,8.828-8.828S490.392,247.172,485.517,247.172z"/>
		<path style="fill:#CC4B4C;" d="M229.517,264.827c4.875,0,8.828-3.952,8.828-8.828s-3.952-8.828-8.828-8.828h-52.966v-26.483
			c0-4.875-3.952-8.828-8.828-8.828c-4.875,0-8.828,3.952-8.828,8.828v26.483h-52.966v-52.966c0-4.875-3.952-8.828-8.828-8.828
			s-8.828,3.952-8.828,8.828v52.966H26.483c-4.875,0-8.828,3.952-8.828,8.828s3.952,8.828,8.828,8.828h61.793v52.966
			c0,4.875,3.952,8.828,8.828,8.828s8.828-3.952,8.828-8.828v-52.966h52.966v26.483c0,4.875,3.952,8.828,8.828,8.828
			c4.875,0,8.828-3.952,8.828-8.828v-26.483H229.517z"/>
		<path style="fill:#CC4B4C;" d="M194.207,105.931h52.966v52.966H220.69c-4.875,0-8.828,3.952-8.828,8.828s3.952,8.828,8.828,8.828
			h26.483v52.966c0,4.875,3.952,8.828,8.828,8.828s8.828-3.952,8.828-8.828v-52.966h26.483c4.875,0,8.828-3.952,8.828-8.828
			s-3.952-8.828-8.828-8.828h-26.483v-52.966h52.966c4.875,0,8.828-3.952,8.828-8.828s-3.952-8.828-8.828-8.828h-52.966V26.483
			c0-4.875-3.952-8.828-8.828-8.828s-8.828,3.952-8.828,8.828v61.793h-52.966c-4.875,0-8.828,3.952-8.828,8.828
			S189.331,105.931,194.207,105.931z"/>
		<path style="fill:#CC4B4C;" d="M317.793,406.069h-52.966v-52.966h26.483c4.875,0,8.828-3.952,8.828-8.828
			s-3.952-8.828-8.828-8.828h-26.483v-52.966c0-4.875-3.952-8.828-8.828-8.828s-8.828,3.952-8.828,8.828v52.966H220.69
			c-4.875,0-8.828,3.952-8.828,8.828s3.952,8.828,8.828,8.828h26.483v52.966h-52.966c-4.875,0-8.828,3.952-8.828,8.828
			s3.952,8.828,8.828,8.828h52.966v61.793c0,4.875,3.952,8.828,8.828,8.828s8.828-3.952,8.828-8.828v-61.793h52.966
			c4.875,0,8.828-3.952,8.828-8.828S322.668,406.069,317.793,406.069z"/>
	</g>
	<g>
		<circle style="fill:#802F34;" cx="256" cy="256" r="44.138"/>
		<path style="fill:#802F34;" d="M47.599,393.802c-6.523,0.01-12.519-3.581-15.59-9.336c-42.678-80.327-42.678-176.604,0-256.931
			c4.619-8.552,15.281-11.763,23.854-7.184c8.573,4.58,11.833,15.227,7.292,23.821c-37.127,69.93-37.127,153.726,0,223.655
			c2.918,5.47,2.755,12.069-0.43,17.388S53.799,393.792,47.599,393.802L47.599,393.802z"/>
		<path style="fill:#802F34;" d="M256,512c-44.797,0.016-88.913-10.976-128.465-32.009c-8.57-4.611-11.792-15.288-7.204-23.87
			c4.588-8.582,15.256-11.833,23.85-7.268c69.926,37.115,153.712,37.115,223.638,0c8.594-4.565,19.262-1.314,23.85,7.268
			c4.588,8.582,1.366,19.259-7.204,23.87C344.912,501.024,300.797,512.016,256,512z"/>
		<path style="fill:#802F34;" d="M464.401,393.802c-6.199-0.009-11.94-3.268-15.126-8.586c-3.185-5.319-3.349-11.918-0.43-17.388
			c37.127-69.929,37.127-153.726,0-223.655c-4.564-8.597-1.31-19.266,7.276-23.852c8.585-4.586,19.263-1.359,23.871,7.214
			c42.678,80.327,42.678,176.604,0,256.931C476.917,390.217,470.923,393.807,464.401,393.802z"/>
		<path style="fill:#802F34;" d="M376.125,65.233c-2.899,0.003-5.753-0.714-8.306-2.086c-69.926-37.115-153.712-37.115-223.638,0
			c-8.594,4.56-19.257,1.308-23.844-7.271c-4.587-8.58-1.368-19.253,7.197-23.866c80.327-42.678,176.604-42.678,256.931,0
			c7.143,3.82,10.771,12.011,8.798,19.868C391.291,59.733,384.225,65.24,376.125,65.233L376.125,65.233z"/>
	</g>
</g>
<g>
</g>
<g>
</g>
<g>
</g>
<g>
</g>
<g>
</g>
<g>
</g>
<g>
</g>
<g>
</g>
<g>
</g>
<g>
</g>
<g>
</g>
<g>
</g>
<g>
</g>
<g>
</g>
<g>
</g>
</svg>
