<svg height="512" viewBox="0 0 32 58" width="512" xmlns="http://www.w3.org/2000/svg"><g id="Page-1" fill="none" fill-rule="evenodd"><g id="035---Noose" fill-rule="nonzero" transform="translate(-1)"><path id="Shape" d="m31 12h-8.27c-.0864076-.1513357-.194183-.2894229-.32-.41-.3704612-.3798589-.8794095-.5928231-1.41-.59-.7137984.0007321-1.373101.3818319-1.73 1h-2.27v-10c0-1.1045695-.8954305-2-2-2s-2 .8954305-2 2v10h-5c-1.10116878.0081672-1.99183278.8988312-2 2 .0032948 1.1032019.89679813 1.9967052 2 2-1.10116878.0081672-1.99183278.8988312-2 2 .0032948 1.1032019.89679813 1.9967052 2 2-1.10116878.0081672-1.99183278.8988312-2 2 .0032948 1.1032019.89679813 1.9967052 2 2-1.10116878.0081672-1.99183278.8988312-2 2 .0032948 1.1032019.89679813 1.9967052 2 2h1c-.01283808 1.8979869-.91173062 3.6809754-2.43 4.82-4.72424572 3.5591969-6.70192474 9.7033943-4.94084321 15.3500723 1.76108153 5.6466779 6.8808923 9.5773157 12.79084321 9.8199277.2.01.39.01.59.01 6.0241858-.0043009 11.3701775-3.8618259 13.2731514-9.577552 1.9029739-5.715726-.0638-12.0079376-4.8831514-15.622448-1.5060279-1.1371317-2.3939114-2.9128987-2.4-4.8h1c1.1011688-.0081672 1.9918328-.8988312 2-2-.0032948-1.1032019-.8967981-1.9967052-2-2 1.1011688-.0081672 1.9918328-.8988312 2-2-.0032948-1.1032019-.8967981-1.9967052-2-2 1.1011688-.0081672 1.9918328-.8988312 2-2-.0007321-.7137984-.3818319-1.373101-1-1.73v-.27h8c1.1011688-.0081672 1.9918328-.8988312 2-2-.0032948-1.1032019-.8967981-1.9967052-2-2zm-10 24c3.5043051 2.6293657 4.8890813 7.2336023 3.4165873 11.3597966s-5.459359 6.8134805-9.8365873 6.6302034c-4.2154845-.180461-7.86412716-2.9873866-9.11946099-7.0156632-1.25533384-4.0282767.1527818-8.4110423 3.51946099-10.9543368 2.5179089-1.8996974 4.004698-4.8658787 4.02-8.02h4c.0101477 3.1451689 1.4899535 6.1047806 4 8z" fill="#f19b1f"/><path id="Shape" d="m19.27 12c-.1762535.3038396-.2693767.6487402-.27 1v3h-11c-1.10320187-.0032948-1.9967052-.8967981-2-2 .00816722-1.1011688.89883122-1.9918328 2-2z" fill="#d15627"/><path id="Shape" d="m24 18c-.0081672 1.1011688-.8988312 1.9918328-2 2h-14c-1.10320187-.0032948-1.9967052-.8967981-2-2 .00816722-1.1011688.89883122-1.9918328 2-2h14c1.1045695 0 2 .8954305 2 2z" fill="#e47e25"/><path id="Shape" d="m24 22c-.0081672 1.1011688-.8988312 1.9918328-2 2h-14c-1.10320187-.0032948-1.9967052-.8967981-2-2 .00816722-1.1011688.89883122-1.9918328 2-2h14c1.1032019.0032948 1.9967052.8967981 2 2z" fill="#d15627"/><path id="Shape" d="m24 26c-.0081672 1.1011688-.8988312 1.9918328-2 2h-14c-1.10320187-.0032948-1.9967052-.8967981-2-2 .00816722-1.1011688.89883122-1.9918328 2-2h14c1.1032019.0032948 1.9967052.8967981 2 2z" fill="#e47e25"/><path id="Shape" d="m33 14c-.0081672 1.1011688-.8988312 1.9918328-2 2h-8v-3c-.0006233-.3512598-.0937465-.6961604-.27-1h8.27c1.1032019.0032948 1.9967052.8967981 2 2z" fill="#d15627"/></g></g></svg>