<svg id="Capa_1" enable-background="new 0 0 512 512" height="512" viewBox="0 0 512 512" width="512" xmlns="http://www.w3.org/2000/svg"><path d="m389.296 133.299-5.054.103c-14.769.597-28.859 3.798-41.828 9.17 0 0-29.961 4.693-81.988 69.915l-3.499 4.21c-42.157-55.588-80.413-71.552-86.496-73.826-.772-.288-1.534-.587-2.295-.885-13.689-5.465-28.582-8.532-44.184-8.687-67.619-.669-123.455 54.168-123.949 121.788-.494 68.186 54.631 123.62 122.704 123.62l5.054-.103c14.769-.597 28.859-3.798 41.828-9.17 0 0 30.537-4.786 83.48-71.799l-.216.288 1.204 1.472c49.269 58.522 88.359 70.039 88.359 70.039 14.44 5.98 30.28 9.273 46.881 9.273 67.774 0 122.704-54.94 122.704-122.704s-54.931-122.704-122.705-122.704zm-204.434 166.075c-17.157 17.991-36.681 31.875-62.669 31.875-41.56 0-75.246-33.686-75.246-75.246 0-41.55 33.676-75.236 75.216-75.246 23.219-.01 41.653 12.484 58.573 27.573 25.782 22.983 45.378 45.553 45.378 45.553s-27.059 30.588-41.252 45.491zm204.98 31.875c-23.219.01-41.653-12.484-58.573-27.573-25.782-22.983-45.378-45.553-45.378-45.553s27.058-30.588 41.251-45.492c17.157-17.991 36.681-31.875 62.669-31.875 41.56 0 75.246 33.686 75.246 75.246 0 41.551-33.676 75.237-75.215 75.247z" fill="#fb2b3a"/><g fill="#d6132b"><path d="m285.89 258.123s5.681 6.546 14.965 16.179l-32.853 40.747c-4.539-4.796-9.191-10.004-13.946-15.655l-1.204-1.472.216-.288z"/><path d="m226.113 253.883s-5.486-6.319-14.481-15.685l31.834-38.133c4.415 5.105 8.913 10.642 13.462 16.632z"/><path d="m428.829 139.804c38.462 20.708 64.604 61.352 64.604 108.099 0 67.764-54.929 122.704-122.704 122.704-15.129 0-29.621-2.738-43.001-7.76 9.294 5.002 14.687 6.587 14.687 6.587 14.44 5.98 30.28 9.273 46.881 9.273 67.774 0 122.704-54.94 122.704-122.704 0-53.931-34.798-99.742-83.171-116.199z"/><path d=""/></g></svg>