<?xml version="1.0" encoding="iso-8859-1"?>
<!-- Generator: Adobe Illustrator 19.0.0, SVG Export Plug-In . SVG Version: 6.00 Build 0)  -->
<svg version="1.1" id="Capa_1" xmlns="http://www.w3.org/2000/svg" xmlns:xlink="http://www.w3.org/1999/xlink" x="0px" y="0px"
	 viewBox="0 0 512 512" style="enable-background:new 0 0 512 512;" xml:space="preserve">
<path style="fill:#E0230D;" d="M255.947,424.5v80c22.09,0,40-17.91,40-40S278.037,424.5,255.947,424.5z"/>
<path style="fill:#FF5440;" d="M255.947,424.5c5.52,0,10,17.91,10,40s-4.48,40-10,40c-22.09,0-40-17.91-40-40
	S233.857,424.5,255.947,424.5z"/>
<path style="fill:#E0230D;" d="M375.947,127.42c-0.05-66.13-53.86-119.92-120-119.92l80.03,99.92l0.08,137.29l-50.032,90.004
	c49.63-0.03,90.032-40.394,90.032-90.004L375.947,127.42z"/>
<path style="fill:#FF5440;" d="M346.057,244.71l-0.08-117.29c-0.04-66.13-40.41-119.92-90.03-119.92c-66.17,0-120,53.83-120,120v60
	c0.06,16.47,13.53,29.79,30.05,29.79c16.57-0.06,30.01-13.49,29.95-30V127.5c0-33.08,26.92-60,60-60c33.06,0,59.98,26.9,60,59.96
	l0.09,117.25c0,16.54-13.45,29.89-29.98,29.9c-33.09,0-60,26.81-60,59.89v30c-0.06,16.51,13.32,29.94,29.89,30h0.11
	c16.52,0,29.94-13.31,30-29.79l-0.032-29.996C319.765,329.733,346.057,290.97,346.057,244.71z"/>
<path d="M255.947,417c-26.191,0-47.5,21.309-47.5,47.5s21.309,47.5,47.5,47.5c26.191,0,47.5-21.309,47.5-47.5
	S282.139,417,255.947,417z M255.947,497c-17.92,0-32.5-14.579-32.5-32.5s14.58-32.5,32.5-32.5c17.92,0,32.5,14.579,32.5,32.5
	S273.868,497,255.947,497z"/>
<path d="M383.447,127.411C383.398,57.156,326.202,0,255.947,0c-70.304,0-127.5,57.196-127.5,127.5v60.026
	c0.073,20.546,16.919,37.262,37.579,37.262c20.707-0.074,37.494-16.909,37.421-37.5V127.5c0-28.948,23.551-52.5,52.5-52.5
	c28.929,0,52.48,23.535,52.5,52.465l0.04,43.628c0.004,4.14,3.361,7.493,7.5,7.493c4.149-0.004,7.504-3.364,7.5-7.507l-0.04-43.626
	C323.421,90.259,293.141,60,255.947,60c-37.219,0-67.5,30.28-67.5,67.5v59.814c0.044,12.348-10.038,22.429-22.448,22.474
	c-12.392,0-22.508-10.011-22.552-22.288v-60c0-62.033,50.467-112.5,112.5-112.5c61.989,0,112.457,50.432,112.5,112.423
	l0.107,117.291c0,45.459-37.025,82.469-82.535,82.5c-1.989,0.001-3.897,0.793-5.302,2.201c-1.406,1.408-2.194,3.316-2.192,5.307
	l0.03,29.965C278.51,376.99,268.418,387,256.057,387h-0.083c-6.015-0.021-11.66-2.375-15.896-6.625
	c-4.228-4.244-6.545-9.872-6.523-15.875v-30.001c0-28.889,23.551-52.392,52.505-52.392c20.663-0.015,37.473-16.789,37.473-37.401
	l-0.046-43.628c-0.004-4.14-3.361-7.492-7.5-7.492c-4.15,0.005-7.504,3.366-7.5,7.508l0.046,43.62
	c0,12.339-10.086,22.385-22.479,22.394c-37.22,0-67.5,30.231-67.5,67.392v29.974c-0.036,9.993,3.834,19.4,10.898,26.489
	c7.057,7.082,16.456,11.002,26.495,11.038h0.109c20.602,0,37.424-16.714,37.498-37.294l-0.022-22.783
	c50.283-3.874,90.022-46.006,90.022-97.216L383.447,127.411z"/>
<g>
</g>
<g>
</g>
<g>
</g>
<g>
</g>
<g>
</g>
<g>
</g>
<g>
</g>
<g>
</g>
<g>
</g>
<g>
</g>
<g>
</g>
<g>
</g>
<g>
</g>
<g>
</g>
<g>
</g>
</svg>
